<?xml version="1.0" encoding="utf-8"?>
<!-- Generator: Adobe Illustrator 22.0.1, SVG Export Plug-In . SVG Version: 6.00 Build 0)  -->
<svg version="1.1" id="Layer_1" xmlns="http://www.w3.org/2000/svg" xmlns:xlink="http://www.w3.org/1999/xlink" x="0px" y="0px"
	 viewBox="0 0 250 250" style="enable-background:new 0 0 250 250;" xml:space="preserve">
<style type="text/css">
	.st0{fill:#F9F9FA;}
	.st1{opacity:8.000000e-02;}
</style>
<rect class="st0" width="250" height="250"/>
<g class="st1">
	<path d="M25.6,84.5c0-3.8,0-7.6,0-11.4c2.6,0,5.2,0,7.9,0c0-1.3,0-2.5,0-3.8c1.3,0,2.6,0,4,0c0-1.3,0-2.5,0-3.8c1.3,0,2.6,0,4,0
		c0-1.3,0-2.5,0-3.7c-1.3,0-2.6,0-4,0c0-2.5,0-5,0-7.6c-1.3,0-2.5,0-3.8,0c0-2.6,0-5.1,0-7.7c2.6,0,5.2,0,7.9,0c0,1.2,0,2.5,0,3.8
		c1.3,0,2.6,0,4,0c0,1.3,0,2.5,0,3.8c1.3,0,2.5,0,3.8,0c0-1.2,0-2.5,0-3.7c1.4,0,2.7,0,4,0c0-1.3,0-2.5,0-3.8c1.3,0,2.6,0,4,0
		c0-1.3,0-2.5,0-3.8c1.3,0,2.6,0,4,0c0-1.3,0-2.5,0-3.8c1.3,0,2.6,0,4,0c0-1.3,0-2.5,0-3.8c1.4,0,2.6,0,4,0c0-1.3,0-2.5,0-3.8
		c1.3,0,2.6,0,4,0c0-1.3,0-2.5,0-3.8c1.3,0,2.6,0,4,0c0-1.3,0-2.5,0-3.8c4,0,8,0,12,0c0,3.8,0,7.6,0,11.4c-1.3,0-2.6,0-3.9,0
		c0,1.3,0,2.5,0,3.8c-1.3,0-2.6,0-4,0c0,1.3,0,2.5,0,3.8c-1.3,0-2.6,0-4,0c0,1.3,0,2.5,0,3.8c-1.3,0-2.6,0-4,0c0,1.3,0,2.5,0,3.8
		c-1.3,0-2.6,0-4,0c0,1.3,0,2.5,0,3.8c-1.3,0-2.6,0-3.9,0c0,1.3,0,2.5,0,3.8c-1.3,0-2.6,0-4,0c0,1.3,0,2.5,0,3.8c-1.3,0-2.6,0-3.9,0
		c0,1.3,0,2.5,0,3.7c1.3,0,2.6,0,3.9,0c0,1.3,0,2.5,0,3.8c1.3,0,2.6,0,4,0c0,2.6,0,5.1,0,7.6c-2.7,0-5.3,0-8,0c0-1.2,0-2.5,0-3.8
		c-2.7,0-5.3,0-8,0c0-1.3,0-2.5,0-3.8c-1.3,0-2.5,0-3.8,0c0,1.2,0,2.5,0,3.7c-1.3,0-2.6,0-4,0c0,1.3,0,2.5,0,3.8c-1.4,0-2.7,0-4,0
		c0,2.6,0,5.1,0,7.6C33.6,84.5,29.6,84.5,25.6,84.5z M57.3,57.9c1.3,0,2.6,0,4,0c0-1.3,0-2.5,0-3.8c1.3,0,2.6,0,4,0
		c0-1.3,0-2.5,0-3.8c1.3,0,2.6,0,4,0c0-1.3,0-2.5,0-3.8c1.3,0,2.6,0,4,0c0-1.3,0-2.5,0-3.8c1.3,0,2.6,0,4,0c0-1.3,0-2.5,0-3.8
		c1.3,0,2.6,0,3.9,0c0-1.3,0-2.5,0-3.8c1.3,0,2.6,0,3.9,0c0-2.5,0-5,0-7.5c-2.6,0-5.2,0-7.8,0c0,1.3,0,2.5,0,3.8c-1.3,0-2.6,0-4,0
		c0,1.3,0,2.5,0,3.8c-1.3,0-2.6,0-4,0c0,1.3,0,2.5,0,3.8c-1.3,0-2.6,0-3.9,0c0,1.3,0,2.5,0,3.8c-1.4,0-2.6,0-4,0c0,1.3,0,2.5,0,3.8
		c-1.3,0-2.6,0-4,0c0,1.3,0,2.5,0,3.8c-1.3,0-2.6,0-4,0c0,1.3,0,2.5,0,3.8c-1.3,0-2.6,0-4,0c0,2.5,0,5,0,7.5c2.6,0,5.2,0,7.8,0
		C57.3,60.4,57.3,59.2,57.3,57.9z M41.6,54.2c0,2.5,0,5,0,7.5c1.3,0,2.5,0,3.8,0c0-2.5,0-5,0-7.5C44.1,54.2,42.9,54.2,41.6,54.2z
		 M57.3,65.6c-2.6,0-5.2,0-7.8,0c0,1.2,0,2.4,0,3.6c2.6,0,5.2,0,7.8,0C57.3,68,57.3,66.8,57.3,65.6z M41.4,73c0-1.2,0-2.4,0-3.7
		c-1.3,0-2.6,0-3.8,0c0,1.2,0,2.5,0,3.7C38.9,73,40.1,73,41.4,73z M57.4,73c1.3,0,2.6,0,3.8,0c0-1.2,0-2.5,0-3.7c-1.3,0-2.5,0-3.8,0
		C57.4,70.6,57.4,71.8,57.4,73z M33.5,76.9c-1.3,0-2.6,0-3.8,0c0,1.2,0,2.4,0,3.7c1.3,0,2.6,0,3.8,0C33.5,79.4,33.5,78.2,33.5,76.9z
		 M45.5,61.8c0,1.2,0,2.5,0,3.7c1.3,0,2.5,0,3.8,0c0-1.2,0-2.4,0-3.7C48.1,61.8,46.8,61.8,45.5,61.8z M45.4,69.2c0-1.2,0-2.4,0-3.6
		c-1.3,0-2.5,0-3.8,0c0,1.2,0,2.4,0,3.6C42.8,69.2,44.1,69.2,45.4,69.2z M37.4,76.8c0-1.2,0-2.4,0-3.7c-1.3,0-2.5,0-3.8,0
		c0,1.2,0,2.4,0,3.7C34.9,76.8,36.2,76.8,37.4,76.8z M41.4,54.1c0-1.2,0-2.4,0-3.7c-1.2,0-2.5,0-3.7,0c0,1.2,0,2.4,0,3.7
		C39,54.1,40.2,54.1,41.4,54.1z"/>
</g>
<g class="st1">
	<path d="M213,39.3c-1.7,0-3.2,0-4.8,0c0-1.6,0-3.1,0-4.7c4.8,0,9.5,0,14.4,0c0,4.8,0,9.5,0,14.4c-1.5,0-3,0-4.6,0
		c0-1.6,0-3.1,0-4.8c-1.7,0-3.2,0-4.9,0C213,42.6,213,41,213,39.3z"/>
	<path d="M183.8,68.7c0,1.3,0,2.4,0,3.6c0,0.9,0.2,1.3,1.2,1.2c1.2-0.1,2.4,0,3.7,0c0,1.6,0,3.1,0,4.7c-3.2,0-6.3,0-9.5,0
		c0-3.2,0-6.2,0-9.4C180.6,68.7,182.1,68.7,183.8,68.7z"/>
	<path d="M208,29.8c0,1.5,0,3,0,4.5c-4.8,0-9.5,0-14.4,0c0-1.4,0-2.9,0-4.5C198.4,29.8,203.1,29.8,208,29.8z"/>
	<path d="M227.5,63.6c-1.6,0-3.1,0-4.6,0c0-4.8,0-9.5,0-14.4c1.5,0,3,0,4.6,0C227.5,54,227.5,58.7,227.5,63.6z"/>
	<path d="M193.6,39.3c3.1,0,6.3,0,9.5,0c0,1.7,0,3.2,0,4.8c-3.1,0-6.3,0-9.5,0C193.6,42.5,193.6,40.9,193.6,39.3L193.6,39.3z"/>
	<path d="M218,63.6c-1.6,0-3.2,0-4.9,0c0-3.1,0-6.3,0-9.5c1.5,0,3.1,0,4.8,0C218,57.3,218,60.5,218,63.6L218,63.6z"/>
	<path d="M188.6,63.7c0-1.6,0-3.2,0-4.9c1.8,0,3.4,0,4.9,0c0,0,0,0,0,0c0,1.7,0,3.3,0,5l0,0C191.9,63.7,190.3,63.7,188.6,63.7
		L188.6,63.7z"/>
	<path d="M198.5,63.7c0,1.5,0,3.1,0,4.9c-1.7,0-3.3,0-4.9,0l0,0c0-1.7,0-3.3,0-5c0,0,0,0,0,0C195.2,63.7,196.8,63.7,198.5,63.7
		L198.5,63.7z"/>
	<path d="M193.6,39.2c-1.6,0-3.2,0-4.8,0c0-1.5,0-3,0-4.6c1.6,0,3.1,0,4.8,0C193.6,36.2,193.6,37.7,193.6,39.2
		C193.6,39.3,193.6,39.2,193.6,39.2z"/>
	<path d="M208,49.2c-1.5,0-3,0-4.6,0c0-1.7,0-3.3,0-4.9c1.5,0,3,0,4.5,0C208,45.9,208,47.6,208,49.2L208,49.2z"/>
	<path d="M208,49.2c1.6,0,3.3,0,5,0c0,1.5,0,3,0,4.6c-1.6,0-3.1,0-4.9,0C208,52.3,208,50.7,208,49.2C208,49.2,208,49.2,208,49.2z"/>
	<path d="M193.6,58.8c0-1.5,0-3.1,0-4.7c1.6,0,3.2,0,4.9,0c0,1.6,0,3.1,0,4.7l0,0C196.8,58.7,195.2,58.7,193.6,58.8L193.6,58.8z"/>
	<path d="M198.5,58.8c1.5,0,3.1,0,4.7,0c0,1.7,0,3.3,0,4.9c-1.6,0-3.1,0-4.7,0c0,0,0,0,0,0C198.5,62.1,198.5,60.4,198.5,58.8
		L198.5,58.8z"/>
	<path d="M188.6,68.6c-1.5,0-3.1,0-4.7,0c0-1.7,0-3.2,0-4.9c1.6,0,3.1,0,4.7,0c0,0,0,0,0,0C188.6,65.3,188.6,67,188.6,68.6
		L188.6,68.6z"/>
	<path d="M218,63.7c1.5,0,3,0,4.6,0c0,1.6,0,3.1,0,4.8c-1.5,0-2.9,0-4.6,0C218,66.9,218,65.3,218,63.7C218,63.6,218,63.7,218,63.7z"
		/>
	<path d="M193.5,68.6c0,1.5,0,3.1,0,4.7c-1.6,0-3.2,0-4.9,0c0-1.6,0-3.2,0-4.7c0,0,0,0,0,0C190.3,68.7,191.9,68.7,193.5,68.6
		L193.5,68.6z"/>
	<path d="M203.2,49.2c0,1.6,0,3,0,4.6c-1.5,0-3,0-4.6,0c0-1.5,0-3,0-4.6C200.1,49.2,201.5,49.2,203.2,49.2z"/>
	<path d="M203.5,54.1c1.6,0,3,0,4.6,0c0,1.6,0,3,0,4.6c-1.5,0-3,0-4.6,0C203.5,57.2,203.5,55.7,203.5,54.1z"/>
</g>
<g class="st1">
	<path d="M42.7,213.5c0,1.3,0,2.7-0.1,4c-2.8,0-5.7,0-8.5,0c0-2.7,0-5.5,0-8.3c1.5,0,2.7,0,4.2,0c0,1.3,0,2.7,0,4
		C40,213.4,41.3,213.5,42.7,213.5C42.7,213.6,42.7,213.5,42.7,213.5z"/>
	<path d="M67.9,167c1.3,0.1,2.6,0.1,4.1,0.2c0,2.8,0,5.5,0,8.3c1.4,0,2.7,0,4.1,0c0,2.8,0,5.5,0,8.3c-1.3,0-2.6,0-4,0
		c0-1.3,0-2.7,0-4.1c-1.4,0-2.7,0-3.9,0c-0.1-0.2-0.2-0.2-0.2-0.3C67.9,175.3,68,171.2,67.9,167L67.9,167z"/>
	<path d="M55.3,192.3c0-1.3,0-2.7,0-4.1c-1.4,0-2.7,0-4.1,0c0-1.4,0-2.7,0-4.1c4.1,0,8.1,0,12.3,0c0,1.3,0,2.6,0,4
		c-1.3,0-2.6,0-4.1,0c0,1.5,0,2.8,0,4.2l0,0C58,192.3,56.6,192.3,55.3,192.3L55.3,192.3z"/>
	<path d="M68,167c-2.9,0-5.8,0-8.7,0l0,0c0-1.3,0-2.6,0-3.9c2.9,0,5.6,0,8.6,0C67.9,164.4,67.9,165.7,68,167C67.9,167,68,167,68,167
		z"/>
	<path d="M50.9,175.7c0,2.8,0,5.4,0,8.2c-1.4,0-2.7,0-4,0c0-2.7,0-5.4,0-8.2C48.2,175.7,49.5,175.7,50.9,175.7z"/>
	<path d="M80.4,184.1c0,2.7,0,5.4,0,8.1c-1.4,0-2.7,0-4,0c0-2.7,0-5.4,0-8.1C77.7,184.1,79,184.1,80.4,184.1z"/>
	<path d="M67.9,192.3c2.7,0,5.4,0,8.2,0c0,1.5,0,2.7,0,4.1c-2.7,0-5.4,0-8.1,0C68,195,68,193.7,67.9,192.3L67.9,192.3z"/>
	<path d="M59.3,167c0,1.4,0,2.8,0,4.2c-1.3,0-2.6,0-4,0c0-1.3,0-2.6,0-4C56.7,167.2,58,167.1,59.3,167C59.3,167,59.3,167,59.3,167z"
		/>
	<path d="M55.2,171.5c0,1.3,0,2.6,0,4c-1.3,0-2.7,0-4,0c0-1.3,0-2.6,0-4C52.5,171.5,53.8,171.5,55.2,171.5z"/>
	<path d="M68,192.3c-1.4,0-2.8,0-4.2,0c0-1.3,0-2.6,0-4c1.3,0,2.6,0,4.2,0C67.9,189.6,67.9,191,68,192.3
		C67.9,192.3,68,192.3,68,192.3z"/>
	<path d="M55.3,192.3c0,1.4,0,2.7,0,4.1c-1.4,0-2.7,0-4.1,0c0-1.4,0-2.7,0-4.1C52.6,192.3,53.9,192.3,55.3,192.3
		C55.3,192.3,55.3,192.3,55.3,192.3z"/>
	<path d="M59.4,192.3c1.4,0,2.7,0,4.1,0c0,1.4,0,2.7,0,4.1c-1.4,0-2.7,0-4.1,0C59.4,195,59.4,193.7,59.4,192.3
		C59.4,192.3,59.4,192.3,59.4,192.3z"/>
	<path d="M46.8,200.9c0-1.4,0-2.7,0-4.2c1.4,0,2.7,0,4,0c0,1.3,0,2.6,0,4.1C49.5,200.8,48.2,200.8,46.8,200.9
		C46.8,200.8,46.8,200.9,46.8,200.9z"/>
	<path d="M55.4,200.9c0-1.4,0-2.7,0-4.2c1.3,0,2.6,0,4,0c0,1.3,0,2.6,0,4.1C58,200.9,56.6,200.9,55.4,200.9L55.4,200.9z"/>
	<path d="M46.7,205c-1.4,0-2.7,0-4.1,0l0,0c0-1.3,0-2.6,0-4.1c1.4,0,2.8,0,4.2,0c0,0,0,0,0,0C46.8,202.2,46.7,203.6,46.7,205
		L46.7,205z"/>
	<path d="M55.3,200.9c0,1.3,0,2.6,0,4c-1.5,0-2.8,0-4.2,0c0-1.3,0-2.6,0-4C52.6,200.9,54,200.9,55.3,200.9
		C55.4,200.9,55.3,200.9,55.3,200.9z"/>
	<path d="M42.6,204.9c0,1.3,0,2.7,0,4.1c-1.4,0-2.7,0-4.1,0c0-1.3,0-2.6,0-4C40,205,41.3,205,42.6,204.9
		C42.7,205,42.6,204.9,42.6,204.9z"/>
	<path d="M46.7,205c1.4,0,2.7,0,4.2,0c0,1.3,0,2.6,0,4c-1.3,0-2.6,0-4.1,0C46.7,207.7,46.7,206.3,46.7,205
		C46.7,205,46.7,205,46.7,205z"/>
	<path d="M42.7,213.6c0-1.4,0-2.8,0-4.3c1.3,0,2.6,0,4,0c0,1.3,0,2.6,0,4C45.4,213.4,44.1,213.4,42.7,213.6
		C42.7,213.5,42.7,213.6,42.7,213.6z"/>
</g>
<g class="st1">
	<path d="M220.2,175.7c-1.5,0-2.9,0-4.4,0c0,0,0,0,0,0c0-4.5,0-9.1,0-13.6c0,0,0,0,0,0c1.4,0,2.9,0,4.3,0.1
		C220.2,166.8,220.2,171.3,220.2,175.7z"/>
	<path d="M166.2,211.8c1.5,0,3,0,4.6,0c0-1.6,0-3,0-4.5c1.5,0,2.9,0,4.5,0c0,2.9,0,5.8,0,8.8c-3,0-6,0-9.1,0
		C166.3,214.7,166.3,213.3,166.2,211.8L166.2,211.8z"/>
	<path d="M215.9,162.2c-4.5,0-9.1,0-13.6,0l0,0c0-1.4,0-2.8,0-4.3c4.5,0,8.9,0,13.3,0C215.7,159.4,215.8,160.8,215.9,162.2
		C215.9,162.2,215.9,162.2,215.9,162.2z"/>
	<path d="M166.3,211.8c-1.4-0.1-2.8-0.1-4.3-0.2c0-3,0-5.9,0-8.8c2.9,0,5.8,0,8.7,0c0,1.4,0,2.8,0,4.3c-1.4,0-2.8,0-4.5,0
		C166.2,208.8,166.2,210.3,166.3,211.8C166.2,211.8,166.3,211.8,166.3,211.8z"/>
	<path d="M202.3,162.2c0,1.5,0,2.9,0,4.5c-1.5,0-2.9,0-4.4,0c0-1.4,0-2.8,0-4.4C199.4,162.2,200.9,162.2,202.3,162.2
		C202.3,162.2,202.3,162.2,202.3,162.2z"/>
	<path d="M193.3,171.4c0-1.5,0-2.9,0-4.4c1.5,0,2.8,0,4.3,0c0,1.4,0,2.8,0,4.4C196.2,171.4,194.7,171.4,193.3,171.4
		C193.3,171.3,193.3,171.4,193.3,171.4z"/>
	<path d="M193.3,175.7c-1.4,0-2.9,0-4.4,0c0-1.4,0-2.8,0-4.3c1.5,0,2.9,0,4.4,0c0,0,0,0,0,0C193.3,172.8,193.3,174.3,193.3,175.7
		L193.3,175.7z"/>
	<path d="M193.2,175.7c1.4,0,2.8,0,4.3,0c0,1.5,0,2.9,0,4.4c-1.4,0-2.8,0-4.3,0C193.3,178.6,193.3,177.2,193.2,175.7
		C193.3,175.7,193.2,175.7,193.2,175.7z"/>
	<path d="M215.8,175.7c0,1.4,0,2.9,0,4.4c-1.6,0-2.9,0-4.4,0c0-1.4,0-2.8,0-4.4C212.9,175.8,214.4,175.8,215.8,175.7
		C215.8,175.8,215.8,175.7,215.8,175.7z"/>
	<path d="M188.9,184.8c0-1.4,0-2.9,0-4.4c1.5,0,2.9,0,4.4,0c0,1.5,0,3,0,4.4l0,0C191.8,184.8,190.3,184.8,188.9,184.8L188.9,184.8z"
		/>
	<path d="M202.4,184.7c-1.5,0-2.9,0-4.5,0c0-1.5,0-2.8,0-4.3c1.4,0,2.8,0,4.4,0C202.3,181.9,202.3,183.3,202.4,184.7
		C202.3,184.8,202.4,184.7,202.4,184.7z"/>
	<path d="M206.8,184.8c0-1.5,0-2.9,0-4.4c1.5,0,2.8,0,4.3,0c0,1.4,0,2.8,0,4.4C209.6,184.8,208.2,184.8,206.8,184.8L206.8,184.8z"/>
	<path d="M188.9,189.2c-1.4,0-2.9,0-4.4,0c0-1.5,0-2.8,0-4.4c1.5,0,2.9,0,4.4,0c0,0,0,0,0,0C188.8,186.3,188.8,187.8,188.9,189.2
		L188.9,189.2z"/>
	<path d="M193.2,184.8c1.4,0,2.9,0,4.4,0c0,1.5,0,2.8,0,4.4c-1.5,0-2.9,0-4.4,0l0,0C193.3,187.8,193.3,186.3,193.2,184.8
		L193.2,184.8z"/>
	<path d="M206.7,184.8c0,1.4,0,2.8,0,4.3c-1.5,0-2.9,0-4.3,0c0-1.5,0-2.9,0-4.4c0,0,0,0,0,0C203.8,184.8,205.3,184.8,206.7,184.8
		C206.8,184.8,206.7,184.8,206.7,184.8z"/>
	<path d="M179.9,193.6c0-1.5,0-2.8,0-4.3c1.4,0,2.8,0,4.3,0c0,1.4,0,2.8,0,4.3C182.8,193.6,181.4,193.6,179.9,193.6z"/>
	<path d="M193.2,189.2c0,1.4,0,2.9,0,4.4c-1.5,0-2.9,0-4.4,0c0-1.5,0-3,0-4.4c0,0,0,0,0,0C190.3,189.2,191.8,189.2,193.2,189.2
		L193.2,189.2z"/>
	<path d="M175.4,198.3c0-1.5,0-2.9,0-4.4c1.5,0,2.8,0,4.3,0c0,1.5,0,3,0,4.4l0.1,0C178.3,198.3,176.8,198.3,175.4,198.3L175.4,198.3
		z"/>
	<path d="M184.4,198.1c0-1.4,0-2.8,0-4.2c1.4,0,2.8,0,4.3,0c0,1.4,0,2.8,0,4.2C187.3,198.1,185.9,198.1,184.4,198.1z"/>
	<path d="M175.4,202.7c-1.4,0-2.9,0-4.4,0c0-1.5,0-2.9,0-4.4c1.5,0,3,0,4.4,0c0,0,0,0,0,0C175.4,199.7,175.4,201.2,175.4,202.7
		C175.4,202.7,175.4,202.7,175.4,202.7z"/>
	<path d="M179.7,198.3c1.5,0,2.9,0,4.4,0c0,1.4,0,2.8,0,4.3c-1.5,0-2.9,0-4.4,0l0,0C179.8,201.2,179.8,199.7,179.7,198.3
		L179.7,198.3z"/>
	<path d="M179.7,202.7c0,1.4,0,2.9,0,4.4c-1.5,0-2.9,0-4.4,0c0-1.5,0-2.9,0-4.4c0,0,0,0,0,0C176.8,202.7,178.3,202.7,179.7,202.7
		L179.7,202.7z"/>
</g>
<g class="st1">
	<path d="M150.3,120c0,4,0,8,0,12c0,1.2-0.4,1.9-1.5,2.5c-7,3.7-14,7.5-21.1,11.2c-0.6,0.3-1.6,0.3-2.2,0c-7-3.4-14-7-21.1-10.5
		c-1.2-0.6-1.8-1.3-1.8-2.8c0.1-8.1,0-16.1,0-24.2c0-1.1,0.3-1.9,1.3-2.4c6.9-3.6,13.8-7.2,20.7-10.9c1.3-0.7,2.3-0.7,3.6,0
		c6.7,3.5,13.5,6.8,20.3,10.2c1.1,0.6,1.6,1.2,1.6,2.5C150.2,111.7,150.3,115.9,150.3,120z M109.1,107.7c0.3,0.2,0.5,0.3,0.6,0.4
		c5.4,2.7,10.7,5.4,16.1,8c0.5,0.2,1.3,0.2,1.8-0.1c4.1-2.1,8.1-4.3,12.1-6.4c1.4-0.8,2.8-1.5,4.4-2.4c-5.8-2.9-11.3-5.7-16.9-8.4
		c-0.4-0.2-1.1-0.1-1.6,0.1c-5.3,2.7-10.6,5.5-15.9,8.3C109.6,107.2,109.4,107.4,109.1,107.7z M106.5,120.4c0,3.7,0,7.3,0,10.9
		c0,0.4,0.5,0.8,0.9,1c5.4,2.7,10.9,5.4,16.3,8.1c0.3,0.1,0.5,0.2,1.1,0.4c0-3.5,0-6.8,0-10.1c0-1.1-0.4-1.5-1.3-2
		c-5.2-2.5-10.4-5.2-15.6-7.7C107.5,120.8,107.1,120.7,106.5,120.4z M146.5,120.1c-3.5,1-3.8,1.4-3.8,4.6c0,0.6,0.1,1.3,0,1.9
		c-0.2,0.6-0.5,1.4-0.9,1.7c-1.6,1-3.2,1.9-4.9,2.7c-1.4,0.6-2.6-0.2-2.8-1.7c-0.1-0.8,0-1.6,0-2.7c-1.8,1-3.4,1.8-4.9,2.6
		c-0.2,0.1-0.5,0.5-0.5,0.7c0,3.6,0,7.2,0,11.1c5.9-3.1,11.6-6.2,17.2-9.2c0.3-0.2,0.6-0.6,0.6-1
		C146.6,127.2,146.5,123.7,146.5,120.1z M106.5,110.8c0,1.5,0.1,2.7,0,3.8c-0.1,1,0.3,1.6,1.2,2c5.2,2.5,10.4,5.1,15.6,7.7
		c0.4,0.2,0.8,0.3,1.3,0.5c0.9-4.1,0.5-4.9-2.9-6.6C116.7,115.9,111.8,113.4,106.5,110.8z M128.7,125c1.8-0.9,3.3-1.7,4.8-2.6
		c0.3-0.2,0.6-0.7,0.6-1.1c-0.2-1.8,0.7-2.7,2.2-3.3c0.8-0.4,1.6-0.8,2.3-1.2c2.5-1.3,2.5-1.3,4.5,0.6c0.9-0.5,1.8-0.9,2.7-1.5
		c0.3-0.2,0.7-0.7,0.7-1c0.1-1.4,0-2.9,0-4.5c-5.9,3.1-11.6,6.1-17.2,9.2c-0.3,0.2-0.6,0.7-0.6,1.1C128.6,122,128.7,123.3,128.7,125
		z M137.8,125.9c1.3-0.8,1.5-2.9,0.8-5C137.3,122.5,138.2,124.2,137.8,125.9z"/>
</g>
</svg>
